<?xml version="1.0" encoding="utf-8"?>
<!-- Generator: Adobe Illustrator 16.0.0, SVG Export Plug-In . SVG Version: 6.00 Build 0)  -->
<!DOCTYPE svg PUBLIC "-//W3C//DTD SVG 1.1//EN" "http://www.w3.org/Graphics/SVG/1.1/DTD/svg11.dtd">
<svg version="1.1" id="Layer_1" xmlns="http://www.w3.org/2000/svg" xmlns:xlink="http://www.w3.org/1999/xlink" x="0px" y="0px"
	 width="106.73px" height="31.829px" viewBox="248.418 92.356 106.73 31.829" enable-background="new 248.418 92.356 106.73 31.829"
	 xml:space="preserve">
<path fill="#FFFFFF" d="M316.581,105.951c0-1.018-0.728-2.077-2.047-2.077c-1.317,0-2.044,1.06-2.044,2.077v4.801
	c0,1.019,0.727,2.08,2.044,2.08c1.32,0,2.047-1.062,2.047-2.08V105.951z M271.678,111.839h1.981c0.576,0,0.941,0.375,0.941,0.971
	v2.328c0,0.598-0.365,0.97-0.941,0.97h-1.981c-0.58,0-0.942-0.374-0.942-0.97v-2.328
	C270.737,112.214,271.099,111.839,271.678,111.839z M256.883,105.951c0-1.018-0.728-2.077-2.045-2.077
	c-1.32,0-2.047,1.06-2.047,2.077v4.801c0,1.019,0.728,2.08,2.047,2.08c1.317,0,2.045-1.062,2.045-2.08V105.951z M254.838,116.438
	c-0.851,0-1.409-0.136-1.958-0.304c-0.046-0.013-0.077-0.016-0.095-0.013c-0.002,0.005,0.005,0.007,0.005,0.058v5.39
	c0,0.596-0.363,0.974-0.942,0.974h-1.981c-0.58,0-0.942-0.376-0.942-0.974v-20c0-0.596,0.362-0.971,0.942-0.971h1.226
	c0.324,0,0.598,0.131,0.774,0.407c0.025,0.032,0.043,0.051,0.053,0.056c0.01-0.003,0.049-0.003,0.072-0.014
	c0.843-0.474,1.698-0.78,2.847-0.78c3.528,0,5.911,2.647,5.911,5.685v4.801C260.748,113.79,258.366,116.438,254.838,116.438z
	 M266.411,97.333h-1.981c-0.579,0-0.942-0.376-0.942-0.972v-2.327c0-0.595,0.365-0.97,0.942-0.97h1.981
	c0.577,0,0.942,0.372,0.942,0.97v2.327C267.353,96.957,266.99,97.333,266.411,97.333z M266.411,116.118h-1.981
	c-0.577,0-0.942-0.376-0.942-0.973v-13.582c0-0.598,0.363-0.971,0.942-0.971h1.981c0.577,0,0.942,0.373,0.942,0.971v13.582
	C267.353,115.742,266.989,116.118,266.411,116.118z M283.757,104.844h-1.981c-0.577,0-0.942-0.375-0.942-0.974v-2.325
	c0-0.598,0.362-0.972,0.942-0.972h1.981c0.577,0,0.941,0.374,0.941,0.972v2.325C284.698,104.469,284.334,104.844,283.757,104.844z
	 M283.757,116.107h-1.981c-0.577,0-0.942-0.372-0.942-0.97v-1.953c-0.03-0.577-0.24-0.796-0.799-0.829h-1.626
	c-0.577,0-0.939-0.378-0.939-0.973v-1.989c-0.039-0.541-0.241-0.753-0.764-0.795h-1.662c-0.577,0-0.942-0.374-0.942-0.973v-1.954
	c-0.031-0.572-0.24-0.796-0.794-0.828h-1.629c-0.58,0-0.942-0.377-0.942-0.974v-2.325c0-0.595,0.362-0.972,0.942-0.972h1.981
	c0.577,0,0.942,0.374,0.942,0.972v1.928c0.023,0.603,0.252,0.824,0.807,0.855h1.616c0.577,0,0.942,0.377,0.942,0.973v1.828
	c0.007,0.669,0.6,0.954,0.935,0.954h1.489c0.58,0,0.942,0.375,0.942,0.973v1.941c0.028,0.594,0.26,0.816,0.822,0.842h1.604
	c0.577,0,0.941,0.378,0.941,0.971v2.328C284.698,115.733,284.334,116.107,283.757,116.107z M294.857,105.945
	c0-1.016-0.728-2.08-2.047-2.08c-1.316,0-2.045,1.063-2.045,2.08v0.586c0,0.086,0.013,0.1,0.094,0.1h3.901
	c0.085,0,0.097-0.015,0.097-0.1V105.945L294.857,105.945z M297.089,110.067h-6.229c-0.082,0-0.094,0.016-0.094,0.101v0.584
	c0,1.019,0.728,2.081,2.044,2.081c1.111,0,1.622-0.661,2.16-1.56c0.26-0.461,0.902-0.601,1.329-0.31l1.478,1.005
	c0.552,0.376,0.475,0.977,0.312,1.326c-0.73,1.593-2.527,3.143-5.277,3.143c-3.529,0-5.911-2.647-5.911-5.686v-4.807
	c0-3.037,2.382-5.679,5.911-5.679c3.528,0,5.913,2.642,5.913,5.679v2.437C298.723,109.435,298.107,110.067,297.089,110.067z
	 M304.526,116.118h-1.98c-0.577,0-0.942-0.376-0.942-0.973V95.138c0-0.598,0.365-0.973,0.942-0.973h1.98
	c0.577,0,0.943,0.375,0.943,0.973v20.008C305.469,115.742,305.105,116.118,304.526,116.118z M314.534,116.438
	c-0.848,0-1.406-0.141-1.956-0.304c-0.046-0.013-0.076-0.016-0.095-0.016c-0.002,0.008,0.006,0.01,0.006,0.061v5.39
	c0,0.598-0.365,0.974-0.942,0.974h-1.982c-0.58,0-0.942-0.376-0.942-0.974v-20c0-0.596,0.362-0.971,0.942-0.971h1.226
	c0.324,0,0.591,0.136,0.773,0.404c0.023,0.038,0.043,0.054,0.053,0.061c0.011-0.002,0.043-0.002,0.062-0.01
	c0.847-0.47,1.703-0.786,2.854-0.786c3.531,0,5.913,2.647,5.913,5.685v4.801C320.447,113.79,318.065,116.438,314.534,116.438z
	 M325.829,116.118h-1.984c-0.577,0-0.938-0.376-0.938-0.973V95.138c0-0.598,0.361-0.973,0.938-0.973h1.984
	c0.577,0,0.939,0.375,0.939,0.973v20.008C326.769,115.742,326.406,116.118,325.829,116.118z M340.403,116.107h-1.229
	c-0.327,0-0.593-0.135-0.771-0.402c-0.025-0.039-0.046-0.057-0.057-0.064c-0.008,0.003-0.04,0.003-0.059,0.013
	c-0.848,0.473-1.703,0.784-2.854,0.784c-3.531,0-5.912-2.647-5.912-5.686v-9.188c0-0.596,0.361-0.971,0.939-0.971h1.983
	c0.574,0,0.939,0.373,0.939,0.971v9.188c0,1.019,0.73,2.08,2.05,2.08c1.317,0,2.045-1.062,2.045-2.08v-9.188
	c0-0.598,0.364-0.971,0.941-0.971h1.982c0.577,0,0.941,0.373,0.941,0.971v13.572C341.344,115.733,340.982,116.107,340.403,116.107z
	 M349.693,106.222c7.907,0.435,6.737,10.216-0.413,10.216c-1.774,0-4.162-0.707-5.369-2.703c-0.228-0.376-0.348-0.939,0.161-1.318
	l1.35-1.006c0.392-0.288,0.999-0.306,1.322,0.154c0.743,1.051,1.95,1.293,2.541,1.307c1.55,0.03,2.229-0.794,2.267-1.515
	c0.039-0.72-0.545-1.548-1.939-1.567c-2.619-0.11-5.622-1.42-5.622-4.77c0-2.297,1.858-4.737,5.565-4.737
	c1.8,0,3.593,0.821,4.724,2.237c0.312,0.389,0.351,0.982-0.141,1.346l-1.353,1.006c-0.425,0.318-0.944,0.219-1.292-0.116
	c-0.672-0.652-1.396-0.991-1.938-0.991c-1.414,0-1.794,0.893-1.794,1.256c0,0.498,0.239,0.771,0.598,0.943
	C348.74,106.144,349.239,106.199,349.693,106.222z"/>
</svg>
